<svg width="32" height="32" viewBox="0 0 32 32" fill="none" xmlns="http://www.w3.org/2000/svg">
<mask id="mask0_9_77338" style="mask-type:alpha" maskUnits="userSpaceOnUse" x="5" y="5" width="22" height="22">
<path d="M24.2962 26.3706C24.869 26.9434 25.7976 26.9434 26.3704 26.3706C26.9432 25.7979 26.9432 24.8692 26.3704 24.2964L18.0741 16.0002L26.3704 7.70395C26.9431 7.13118 26.9431 6.20254 26.3704 5.62977C25.7976 5.057 24.869 5.057 24.2962 5.62977L16 13.926L7.70373 5.62977C7.13096 5.057 6.20231 5.057 5.62954 5.62977C5.05678 6.20254 5.05678 7.13118 5.62954 7.70395L13.9258 16.0002L5.62953 24.2964C5.05676 24.8692 5.05676 25.7978 5.62953 26.3706C6.2023 26.9434 7.13094 26.9434 7.70371 26.3706L16 18.0744L24.2962 26.3706Z" fill="black"/>
</mask>
<g mask="url(#mask0_9_77338)">
<rect width="32" height="32" fill="black" fill-opacity="0.8"/>
</g>
</svg>
