<svg width="44" height="44" viewBox="0 0 44 44" fill="none" xmlns="http://www.w3.org/2000/svg">
<path d="M0 6.875C0 3.07804 3.07804 0 6.875 0H37.125C40.922 0 44 3.07804 44 6.875V37.125C44 40.922 40.922 44 37.125 44H6.875C3.07804 44 0 40.922 0 37.125V6.875Z" fill="#FA0050"/>
<path fill-rule="evenodd" clip-rule="evenodd" d="M14.1242 15.0979C14.1242 17.0774 12.5209 18.6801 10.5406 18.6801C8.56038 18.6801 6.95708 17.0774 6.95708 15.0979C6.95708 13.1183 8.56038 11.5156 10.5406 11.5156C12.5209 11.5156 14.1242 13.1183 14.1242 15.0979ZM12.34 15.0979C12.34 14.1031 11.5358 13.2992 10.5406 13.2992C9.55051 13.2992 8.74635 14.1081 8.74132 15.0979C8.74132 16.0926 9.54549 16.8965 10.5406 16.8965C11.5358 16.8965 12.34 16.0876 12.34 15.0979Z" fill="white"/>
<path d="M13.2497 18.9313V20.1471C13.888 20.0266 14.5062 19.8708 15.1093 19.6698L15.6672 21.3429C14.0538 21.8805 12.3299 22.1719 10.5406 22.1719C8.75135 22.1719 7.02742 21.8755 5.41406 21.3429L5.96693 19.6648C6.57005 19.8658 7.19328 20.0266 7.83159 20.1471V18.9313L9.64599 19.1775V20.3732C9.94253 20.3933 10.2391 20.4034 10.5406 20.4034C10.8422 20.4034 11.1387 20.3933 11.4353 20.3732V19.1775L13.2497 18.9313Z" fill="white"/>
<path d="M26.3375 11.6211H24.4729V21.9458H26.3375V11.6211Z" fill="white"/>
<path d="M17.4113 13.9523V12.1637L22.7289 12.1688L22.7339 13.3344C22.7339 15.3641 22.6686 16.0826 22.1006 17.1326C21.5377 18.1827 19.4167 19.6347 17.9944 20.3732L17.1902 18.8007C18.4165 18.1375 19.8389 17.1477 20.3918 16.3539C20.8571 15.6856 20.8473 14.9321 20.8406 14.4106C20.8398 14.3519 20.8391 14.2961 20.8391 14.2437V13.9523H17.4113Z" fill="white"/>
<path d="M38.0381 19.6698C37.435 19.8708 36.8118 20.0316 36.1735 20.1522V18.9363L34.3591 19.1825V20.3783C34.0625 20.3983 33.766 20.4084 33.4644 20.4084C33.1629 20.4084 32.8663 20.3983 32.5698 20.3783V19.1825L30.7554 18.9363V20.1522C30.1171 20.0316 29.4939 19.8708 28.8907 19.6698L28.3329 21.3429C29.9462 21.8755 31.6701 22.1719 33.4594 22.1719C35.2537 22.1719 36.9726 21.8805 38.586 21.3429L38.0381 19.6698Z" fill="white"/>
<path fill-rule="evenodd" clip-rule="evenodd" d="M37.048 15.0979C37.048 17.0774 35.4447 18.6801 33.4645 18.6801C31.4842 18.6801 29.8809 17.0774 29.8809 15.0979C29.8809 13.1183 31.4842 11.5156 33.4645 11.5156C35.4447 11.5156 37.048 13.1183 37.048 15.0979ZM35.2638 15.0979C35.2638 14.1031 34.4596 13.2992 33.4645 13.2992C32.4693 13.2992 31.6651 14.1081 31.6651 15.0979C31.6651 16.0926 32.4693 16.8965 33.4645 16.8965C34.4596 16.8965 35.2638 16.0876 35.2638 15.0979Z" fill="white"/>
<path fill-rule="evenodd" clip-rule="evenodd" d="M16.5009 28.9964L16.5012 28.9956C16.6324 28.6 16.6977 28.1873 16.6977 27.7587C16.6977 26.8103 16.404 26.0367 15.7934 25.4718C15.1763 24.8967 14.2279 24.6367 13.007 24.6367H9.79688V34.3353H12.2723V31.0691H12.8553C13.5486 31.0691 14.1468 30.9854 14.6423 30.8093L14.6432 30.8089L14.6442 30.8086C15.1316 30.6309 15.5342 30.3861 15.841 30.0674C16.145 29.7561 16.366 29.3986 16.5009 28.9964ZM13.9117 27.0165L13.9126 27.0174L13.9135 27.0181C14.0913 27.1712 14.2033 27.4225 14.2033 27.8278C14.2033 28.1111 14.1387 28.3181 14.0305 28.4687C13.9175 28.6259 13.7545 28.7475 13.5272 28.8286C13.2919 28.9127 13.0043 28.9581 12.6593 28.9581H12.2723V26.7477H12.9059C13.4087 26.7477 13.7265 26.854 13.9117 27.0165Z" fill="white"/>
<path fill-rule="evenodd" clip-rule="evenodd" d="M26.5549 31.4835L26.5551 31.483C26.7406 30.8731 26.8317 30.2025 26.8317 29.4734C26.8317 28.4909 26.6692 27.6227 26.3355 26.8753C26.0026 26.1204 25.4868 25.5307 24.7914 25.1133C24.0951 24.6929 23.2213 24.4922 22.1865 24.4922C21.1474 24.4922 20.2678 24.6929 19.5636 25.1127C18.8638 25.5299 18.3435 26.1195 18.0062 26.8747L18.0059 26.8753C17.6764 27.6185 17.516 28.4826 17.516 29.4609C17.516 30.1939 17.6071 30.8667 17.7926 31.4767C17.9789 32.0893 18.2626 32.6221 18.6463 33.0705L18.6468 33.0711L18.6473 33.0717C19.0382 33.5233 19.5297 33.8686 20.1163 34.1088L20.1171 34.1091L20.1179 34.1094C20.7076 34.3465 21.395 34.4609 22.1739 34.4609C22.9527 34.4609 23.6401 34.3465 24.2298 34.1094L24.2306 34.1091L24.2314 34.1088C24.8179 33.8686 25.3076 33.5233 25.6945 33.0712C26.0823 32.623 26.3684 32.0923 26.5549 31.4835ZM24.0353 31.0477L24.0351 31.0483L24.0349 31.049C23.8937 31.4659 23.6722 31.7746 23.376 31.9903C23.086 32.1973 22.6925 32.3122 22.1739 32.3122C21.6647 32.3122 21.275 32.1977 20.9844 31.9903C20.6873 31.7741 20.4613 31.4643 20.3119 31.0463C20.1637 30.6156 20.0862 30.0931 20.0862 29.4734C20.0862 28.849 20.1639 28.3267 20.3119 27.9006C20.4616 27.4777 20.6877 27.1686 20.9835 26.9571L20.984 26.9568C21.279 26.7449 21.6731 26.6283 22.1865 26.6283C22.9551 26.6283 23.4576 26.8798 23.76 27.341C24.085 27.8367 24.2615 28.5388 24.2615 29.4734C24.2615 30.0937 24.1838 30.6167 24.0353 31.0477Z" fill="white"/>
<path d="M30.5378 34.4609C31.2871 34.4609 31.9391 34.3486 32.4855 34.1134C33.0345 33.8789 33.4649 33.5391 33.7622 33.089C34.059 32.6395 34.2031 32.1155 34.2031 31.5274C34.2031 31.0148 34.1068 30.5664 33.8985 30.1955C33.6969 29.8325 33.4107 29.5223 33.0464 29.2641C32.6976 29.0099 32.2809 28.7699 31.7986 28.5431C31.4134 28.3601 31.0928 28.2008 30.8361 28.0651C30.5964 27.9361 30.4317 27.8119 30.3283 27.6969C30.2465 27.5981 30.2013 27.4752 30.2013 27.3127C30.2013 27.1715 30.2346 27.0598 30.2934 26.9681L30.2943 26.9666L30.2952 26.9652C30.3528 26.8726 30.4402 26.7959 30.5713 26.7388L30.5737 26.7377L30.5761 26.7366C30.7069 26.6764 30.8767 26.6409 31.0941 26.6409C31.4199 26.6409 31.7396 26.6857 32.0538 26.7755L32.0552 26.7759L32.0566 26.7763C32.3817 26.8651 32.7534 26.9934 33.1724 27.1624L33.4086 27.2576L34.2365 25.2754L34.0048 25.1735C33.5176 24.9593 33.0468 24.7952 32.5928 24.6823C32.1364 24.5636 31.6577 24.5047 31.1573 24.5047C30.4893 24.5047 29.8961 24.6138 29.3843 24.8407C28.8754 25.064 28.474 25.3924 28.1911 25.8281C27.9064 26.2665 27.7702 26.7863 27.7702 27.3755C27.7702 27.8231 27.8467 28.2228 28.0101 28.5665L28.011 28.5685L28.012 28.5705C28.1725 28.894 28.3785 29.1734 28.631 29.4056C28.8716 29.627 29.1269 29.8163 29.397 29.9729L29.3984 29.9737L29.3998 29.9744C29.6567 30.1191 29.8962 30.2435 30.1178 30.3472C30.4564 30.5092 30.7585 30.6603 31.0243 30.8006L31.0251 30.801L31.0258 30.8014C31.2832 30.9351 31.4724 31.0724 31.6031 31.2092C31.7122 31.3235 31.7656 31.4561 31.7656 31.6216C31.7656 31.7679 31.7318 31.8884 31.67 31.9908C31.6161 32.0801 31.5213 32.164 31.3604 32.2321L31.3595 32.2325L31.3585 32.2329C31.2092 32.2974 30.9911 32.3373 30.6895 32.3373C30.2551 32.3373 29.8144 32.2648 29.3664 32.1178C28.902 31.9654 28.4546 31.7945 28.0242 31.6054L27.6627 31.4465V33.8126L27.8089 33.8828C28.0742 34.0102 28.3522 34.1176 28.6427 34.205L28.6449 34.2057L28.6471 34.2063C28.9414 34.2892 29.2459 34.3523 29.5606 34.3957L29.561 34.3958C29.8806 34.4393 30.2062 34.4609 30.5378 34.4609Z" fill="white"/>
</svg>
